<svg preserveAspectRatio="none" overflow="visible" style="display: block;" width="18" height="18" viewBox="0 0 18 18" fill="none" xmlns="http://www.w3.org/2000/svg">
<g id="SVG">
<path id="Vector" d="M7.25325 3.102C7.33888 2.20113 8.09545 1.51307 9.00038 1.51307C9.9053 1.51307 10.6619 2.20113 10.7475 3.102C10.7979 3.67196 11.123 4.18155 11.6186 4.46751C12.1142 4.75346 12.7181 4.77986 13.2367 4.53825C14.0589 4.16497 15.0302 4.47648 15.4819 5.25833C15.9336 6.04018 15.7183 7.03718 14.9843 7.563C14.516 7.89154 14.2373 8.42764 14.2373 8.99963C14.2373 9.57161 14.516 10.1077 14.9843 10.4362C15.7183 10.9621 15.9336 11.9591 15.4819 12.7409C15.0302 13.5228 14.0589 13.8343 13.2367 13.461C12.7181 13.2194 12.1142 13.2458 11.6186 13.5317C11.123 13.8177 10.7979 14.3273 10.7475 14.8973C10.6619 15.7981 9.9053 16.4862 9.00038 16.4862C8.09545 16.4862 7.33888 15.7981 7.25325 14.8973C7.20293 14.3271 6.87774 13.8173 6.38192 13.5313C5.88611 13.2453 5.28199 13.2191 4.76325 13.461C3.94106 13.8343 2.96981 13.5228 2.51811 12.7409C2.06641 11.9591 2.28169 10.9621 3.01575 10.4362C3.48397 10.1077 3.76272 9.57161 3.76272 8.99963C3.76272 8.42764 3.48397 7.89154 3.01575 7.563C2.28276 7.03695 2.06805 6.04084 2.51924 5.25953C2.97043 4.47823 3.94051 4.16632 4.7625 4.53825C5.28117 4.77986 5.88505 4.75346 6.38065 4.46751C6.87625 4.18155 7.20134 3.67196 7.25175 3.102" stroke="black" stroke-width="1.5" stroke-linecap="round" stroke-linejoin="round"/>
<path id="Vector_2" d="M6.75 9C6.75 10.2418 7.75819 11.25 9 11.25C10.2418 11.25 11.25 10.2418 11.25 9C11.25 7.75819 10.2418 6.75 9 6.75C7.75819 6.75 6.75 7.75819 6.75 9V9" stroke="black" stroke-width="1.5" stroke-linecap="round" stroke-linejoin="round"/>
</g>
</svg>
